<svg xmlns="http://www.w3.org/2000/svg" version="1.1" viewBox="0 0 414 140" style="width: 414px; height: 140px;"><rect x="0" y="0" width="414" height="140" fill="#ffffff" stroke="#000000" stroke-width="0"/><pattern id="fillpat" x="0" y="0" width="4" height="4" patternUnits="userSpaceOnUse"><rect x="0" y="0" width="2" height="2" fill="#000000" stroke="#000000" stroke-width="0"/><rect x="2" y="2" width="2" height="2" fill="#000000" stroke="#000000" stroke-width="0"/></pattern><g><text x="28" y="21" stroke="#000000" style="font: 15px Arial; text-anchor: middle;">1</text><text x="50" y="21" stroke="#000000" style="font: 15px Arial; text-anchor: middle;">2</text><text x="72" y="21" stroke="#000000" style="font: 15px Arial; text-anchor: middle;">3</text><text x="94" y="21" stroke="#000000" style="font: 15px Arial; text-anchor: middle;">4</text><text x="116" y="21" stroke="#000000" style="font: 15px Arial; text-anchor: middle;">5</text><text x="138" y="21" stroke="#000000" style="font: 15px Arial; text-anchor: middle;">6</text><text x="160" y="21" stroke="#000000" style="font: 15px Arial; text-anchor: middle;">7</text><text x="182" y="21" stroke="#000000" style="font: 15px Arial; text-anchor: middle;">8</text><text x="204" y="21" stroke="#000000" style="font: 15px Arial; text-anchor: middle;">9</text><text x="226" y="21" stroke="#000000" style="font: 15px Arial; text-anchor: middle;">10</text><text x="248" y="21" stroke="#000000" style="font: 15px Arial; text-anchor: middle;">11</text><text x="270" y="21" stroke="#000000" style="font: 15px Arial; text-anchor: middle;">12</text><text x="292" y="21" stroke="#000000" style="font: 15px Arial; text-anchor: middle;">13</text><text x="314" y="21" stroke="#000000" style="font: 15px Arial; text-anchor: middle;">14</text><text x="336" y="21" stroke="#000000" style="font: 15px Arial; text-anchor: middle;">15</text><text x="358" y="21" stroke="#000000" style="font: 15px Arial; text-anchor: middle;">16</text><text x="380" y="21" stroke="#000000" style="font: 15px Arial; text-anchor: middle;">17</text><text x="402" y="21" stroke="#000000" style="font: 15px Arial; text-anchor: middle;">18</text></g><g visibility="visible"><g><text x="13" y="42" stroke="#000000" style="font: 15px Arial; text-anchor: end;">D</text><text x="13" y="64" stroke="#000000" style="font: 15px Arial; text-anchor: end;">C</text><text x="13" y="86" stroke="#000000" style="font: 15px Arial; text-anchor: end;">B</text><text x="13" y="108" stroke="#000000" style="font: 15px Arial; text-anchor: end;">A</text><text x="28" y="128" stroke="#000000" style="font: 15px Arial; text-anchor: middle;">S</text><rect x="16" y="25" width="22" height="22" fill="#ffffff" stroke-width="2" stroke="#000000" style="stroke-width: 2px;"/><g transform="translate(28,37) rotate(-45)"><ellipse cx="0" cy="0" rx="10" ry="5" fill="#0000ff" stroke="#000000" stroke-width="1"/></g><rect x="16" y="47" width="22" height="22" fill="#ffffff" stroke-width="2" stroke="#000000" style="stroke-width: 2px;"/><g transform="translate(28,59) rotate(-45)"><ellipse cx="0" cy="0" rx="10" ry="5" fill="#0000ff" stroke="#000000" stroke-width="1"/></g><rect x="16" y="69" width="22" height="22" fill="#ffffff" stroke-width="2" stroke="#000000" style="stroke-width: 2px;"/><g transform="translate(28,81) rotate(-45)"><ellipse cx="0" cy="0" rx="10" ry="5" fill="#0000ff" stroke="#000000" stroke-width="1"/></g><rect x="16" y="91" width="22" height="22" fill="#ffffff" stroke-width="2" stroke="#000000" style="stroke-width: 2px;"/><g transform="translate(28,103) rotate(-45)"><ellipse cx="0" cy="0" rx="10" ry="5" fill="#0000ff" stroke="#000000" stroke-width="1"/></g><text x="50" y="128" stroke="#000000" style="font: 15px Arial; text-anchor: middle;">Z</text><rect x="38" y="25" width="22" height="22" fill="#ffffff" stroke-width="2" stroke="#000000" style="stroke-width: 2px;"/><g transform="translate(50,37) rotate(45)"><ellipse cx="0" cy="0" rx="10" ry="5" fill="#0000ff" stroke="#000000" stroke-width="1"/></g><rect x="38" y="47" width="22" height="22" fill="#ffffff" stroke-width="2" stroke="#000000" style="stroke-width: 2px;"/><g transform="translate(50,59) rotate(45)"><ellipse cx="0" cy="0" rx="10" ry="5" fill="#0000ff" stroke="#000000" stroke-width="1"/></g><rect x="38" y="69" width="22" height="22" fill="#ffffff" stroke-width="2" stroke="#000000" style="stroke-width: 2px;"/><g transform="translate(50,81) rotate(45)"><ellipse cx="0" cy="0" rx="10" ry="5" fill="#0000ff" stroke="#000000" stroke-width="1"/></g><rect x="38" y="91" width="22" height="22" fill="#ffffff" stroke-width="2" stroke="#000000" style="stroke-width: 2px;"/><g transform="translate(50,103) rotate(45)"><ellipse cx="0" cy="0" rx="10" ry="5" fill="#0000ff" stroke="#000000" stroke-width="1"/></g><text x="72" y="128" stroke="#000000" style="font: 15px Arial; text-anchor: middle;">S</text><rect x="60" y="25" width="22" height="22" fill="#ffffff" stroke-width="2" stroke="#000000" style="stroke-width: 2px;"/><g transform="translate(72,37) rotate(-45)"><ellipse cx="0" cy="0" rx="10" ry="5" fill="#0000ff" stroke="#000000" stroke-width="1"/></g><rect x="60" y="47" width="22" height="22" fill="#ffffff" stroke-width="2" stroke="#000000" style="stroke-width: 2px;"/><g transform="translate(72,59) rotate(-45)"><ellipse cx="0" cy="0" rx="10" ry="5" fill="#0000ff" stroke="#000000" stroke-width="1"/></g><rect x="60" y="69" width="22" height="22" fill="#ffffff" stroke-width="2" stroke="#000000" style="stroke-width: 2px;"/><g transform="translate(72,81) rotate(-45)"><ellipse cx="0" cy="0" rx="10" ry="5" fill="#0000ff" stroke="#000000" stroke-width="1"/></g><rect x="60" y="91" width="22" height="22" fill="#ffffff" stroke-width="2" stroke="#000000" style="stroke-width: 2px;"/><g transform="translate(72,103) rotate(-45)"><ellipse cx="0" cy="0" rx="10" ry="5" fill="#0000ff" stroke="#000000" stroke-width="1"/></g><text x="94" y="128" stroke="#000000" style="font: 15px Arial; text-anchor: middle;">Z</text><rect x="82" y="25" width="22" height="22" fill="#ffffff" stroke-width="2" stroke="#000000" style="stroke-width: 2px;"/><g transform="translate(94,37) rotate(45)"><ellipse cx="0" cy="0" rx="10" ry="5" fill="#ffffff" stroke="#000000" stroke-width="1"/></g><rect x="82" y="47" width="22" height="22" fill="#ffffff" stroke-width="2" stroke="#000000" style="stroke-width: 2px;"/><g transform="translate(94,59) rotate(45)"><ellipse cx="0" cy="0" rx="10" ry="5" fill="#ffffff" stroke="#000000" stroke-width="1"/></g><rect x="82" y="69" width="22" height="22" fill="#ffffff" stroke-width="2" stroke="#000000" style="stroke-width: 2px;"/><g transform="translate(94,81) rotate(45)"><ellipse cx="0" cy="0" rx="10" ry="5" fill="#ffffff" stroke="#000000" stroke-width="1"/></g><rect x="82" y="91" width="22" height="22" fill="#ffffff" stroke-width="2" stroke="#000000" style="stroke-width: 2px;"/><g transform="translate(94,103) rotate(45)"><ellipse cx="0" cy="0" rx="10" ry="5" fill="#ffffff" stroke="#000000" stroke-width="1"/></g><text x="116" y="128" stroke="#000000" style="font: 15px Arial; text-anchor: middle;">S</text><rect x="104" y="25" width="22" height="22" fill="#ffffff" stroke-width="2" stroke="#000000" style="stroke-width: 2px;"/><g transform="translate(116,37) rotate(-45)"><ellipse cx="0" cy="0" rx="10" ry="5" fill="#0000ff" stroke="#000000" stroke-width="1"/></g><rect x="104" y="47" width="22" height="22" fill="#ffffff" stroke-width="2" stroke="#000000" style="stroke-width: 2px;"/><g transform="translate(116,59) rotate(-45)"><ellipse cx="0" cy="0" rx="10" ry="5" fill="#0000ff" stroke="#000000" stroke-width="1"/></g><rect x="104" y="69" width="22" height="22" fill="#ffffff" stroke-width="2" stroke="#000000" style="stroke-width: 2px;"/><g transform="translate(116,81) rotate(-45)"><ellipse cx="0" cy="0" rx="10" ry="5" fill="#0000ff" stroke="#000000" stroke-width="1"/></g><rect x="104" y="91" width="22" height="22" fill="#ffffff" stroke-width="2" stroke="#000000" style="stroke-width: 2px;"/><g transform="translate(116,103) rotate(-45)"><ellipse cx="0" cy="0" rx="10" ry="5" fill="#0000ff" stroke="#000000" stroke-width="1"/></g><text x="138" y="128" stroke="#000000" style="font: 15px Arial; text-anchor: middle;">Z</text><rect x="126" y="25" width="22" height="22" fill="#ffffff" stroke-width="2" stroke="#000000" style="stroke-width: 2px;"/><g transform="translate(138,37) rotate(45)"><ellipse cx="0" cy="0" rx="10" ry="5" fill="#0000ff" stroke="#000000" stroke-width="1"/></g><rect x="126" y="47" width="22" height="22" fill="#ffffff" stroke-width="2" stroke="#000000" style="stroke-width: 2px;"/><g transform="translate(138,59) rotate(45)"><ellipse cx="0" cy="0" rx="10" ry="5" fill="#0000ff" stroke="#000000" stroke-width="1"/></g><rect x="126" y="69" width="22" height="22" fill="#ffffff" stroke-width="2" stroke="#000000" style="stroke-width: 2px;"/><g transform="translate(138,81) rotate(45)"><ellipse cx="0" cy="0" rx="10" ry="5" fill="#ffffff" stroke="#000000" stroke-width="1"/></g><rect x="126" y="91" width="22" height="22" fill="#ffffff" stroke-width="2" stroke="#000000" style="stroke-width: 2px;"/><g transform="translate(138,103) rotate(45)"><ellipse cx="0" cy="0" rx="10" ry="5" fill="#0000ff" stroke="#000000" stroke-width="1"/></g><text x="160" y="128" stroke="#000000" style="font: 15px Arial; text-anchor: middle;">S</text><rect x="148" y="25" width="22" height="22" fill="#ffffff" stroke-width="2" stroke="#000000" style="stroke-width: 2px;"/><g transform="translate(160,37) rotate(-45)"><ellipse cx="0" cy="0" rx="10" ry="5" fill="#0000ff" stroke="#000000" stroke-width="1"/></g><rect x="148" y="47" width="22" height="22" fill="#ffffff" stroke-width="2" stroke="#000000" style="stroke-width: 2px;"/><g transform="translate(160,59) rotate(-45)"><ellipse cx="0" cy="0" rx="10" ry="5" fill="#ffffff" stroke="#000000" stroke-width="1"/></g><rect x="148" y="69" width="22" height="22" fill="#ffffff" stroke-width="2" stroke="#000000" style="stroke-width: 2px;"/><g transform="translate(160,81) rotate(-45)"><ellipse cx="0" cy="0" rx="10" ry="5" fill="#ffffff" stroke="#000000" stroke-width="1"/></g><rect x="148" y="91" width="22" height="22" fill="#ffffff" stroke-width="2" stroke="#000000" style="stroke-width: 2px;"/><g transform="translate(160,103) rotate(-45)"><ellipse cx="0" cy="0" rx="10" ry="5" fill="#0000ff" stroke="#000000" stroke-width="1"/></g><text x="182" y="128" stroke="#000000" style="font: 15px Arial; text-anchor: middle;">Z</text><rect x="170" y="25" width="22" height="22" fill="#ffffff" stroke-width="2" stroke="#000000" style="stroke-width: 2px;"/><g transform="translate(182,37) rotate(45)"><ellipse cx="0" cy="0" rx="10" ry="5" fill="#0000ff" stroke="#000000" stroke-width="1"/></g><rect x="170" y="47" width="22" height="22" fill="#ffffff" stroke-width="2" stroke="#000000" style="stroke-width: 2px;"/><g transform="translate(182,59) rotate(45)"><ellipse cx="0" cy="0" rx="10" ry="5" fill="#ffffff" stroke="#000000" stroke-width="1"/></g><rect x="170" y="69" width="22" height="22" fill="#ffffff" stroke-width="2" stroke="#000000" style="stroke-width: 2px;"/><g transform="translate(182,81) rotate(45)"><ellipse cx="0" cy="0" rx="10" ry="5" fill="#00ffff" stroke="#000000" stroke-width="1"/></g><rect x="170" y="91" width="22" height="22" fill="#ffffff" stroke-width="2" stroke="#000000" style="stroke-width: 2px;"/><g transform="translate(182,103) rotate(45)"><ellipse cx="0" cy="0" rx="10" ry="5" fill="#ffffff" stroke="#000000" stroke-width="1"/></g><text x="204" y="128" stroke="#000000" style="font: 15px Arial; text-anchor: middle;">S</text><rect x="192" y="25" width="22" height="22" fill="#ffffff" stroke-width="2" stroke="#000000" style="stroke-width: 2px;"/><g transform="translate(204,37) rotate(-45)"><ellipse cx="0" cy="0" rx="10" ry="5" fill="#ffffff" stroke="#000000" stroke-width="1"/></g><rect x="192" y="47" width="22" height="22" fill="#ffffff" stroke-width="2" stroke="#000000" style="stroke-width: 2px;"/><g transform="translate(204,59) rotate(-45)"><ellipse cx="0" cy="0" rx="10" ry="5" fill="#00ffff" stroke="#000000" stroke-width="1"/></g><rect x="192" y="69" width="22" height="22" fill="#ffffff" stroke-width="2" stroke="#000000" style="stroke-width: 2px;"/><g transform="translate(204,81) rotate(-45)"><ellipse cx="0" cy="0" rx="10" ry="5" fill="#00ffff" stroke="#000000" stroke-width="1"/></g><rect x="192" y="91" width="22" height="22" fill="#ffffff" stroke-width="2" stroke="#000000" style="stroke-width: 2px;"/><g transform="translate(204,103) rotate(-45)"><ellipse cx="0" cy="0" rx="10" ry="5" fill="#ffffff" stroke="#000000" stroke-width="1"/></g><text x="226" y="128" stroke="#000000" style="font: 15px Arial; text-anchor: middle;">Z</text><rect x="214" y="25" width="22" height="22" fill="#ffffff" stroke-width="2" stroke="#000000" style="stroke-width: 2px;"/><g transform="translate(226,37) rotate(45)"><ellipse cx="0" cy="0" rx="10" ry="5" fill="#ffffff" stroke="#000000" stroke-width="1"/></g><rect x="214" y="47" width="22" height="22" fill="#ffffff" stroke-width="2" stroke="#000000" style="stroke-width: 2px;"/><g transform="translate(226,59) rotate(45)"><ellipse cx="0" cy="0" rx="10" ry="5" fill="#00ffff" stroke="#000000" stroke-width="1"/></g><rect x="214" y="69" width="22" height="22" fill="#ffffff" stroke-width="2" stroke="#000000" style="stroke-width: 2px;"/><g transform="translate(226,81) rotate(45)"><ellipse cx="0" cy="0" rx="10" ry="5" fill="#00ffff" stroke="#000000" stroke-width="1"/></g><rect x="214" y="91" width="22" height="22" fill="#ffffff" stroke-width="2" stroke="#000000" style="stroke-width: 2px;"/><g transform="translate(226,103) rotate(45)"><ellipse cx="0" cy="0" rx="10" ry="5" fill="#00ffff" stroke="#000000" stroke-width="1"/></g><text x="248" y="128" stroke="#000000" style="font: 15px Arial; text-anchor: middle;">S</text><rect x="236" y="25" width="22" height="22" fill="#ffffff" stroke-width="2" stroke="#000000" style="stroke-width: 2px;"/><g transform="translate(248,37) rotate(-45)"><ellipse cx="0" cy="0" rx="10" ry="5" fill="#ffffff" stroke="#000000" stroke-width="1"/></g><rect x="236" y="47" width="22" height="22" fill="#ffffff" stroke-width="2" stroke="#000000" style="stroke-width: 2px;"/><g transform="translate(248,59) rotate(-45)"><ellipse cx="0" cy="0" rx="10" ry="5" fill="#00ffff" stroke="#000000" stroke-width="1"/></g><rect x="236" y="69" width="22" height="22" fill="#ffffff" stroke-width="2" stroke="#000000" style="stroke-width: 2px;"/><g transform="translate(248,81) rotate(-45)"><ellipse cx="0" cy="0" rx="10" ry="5" fill="#00ffff" stroke="#000000" stroke-width="1"/></g><rect x="236" y="91" width="22" height="22" fill="#ffffff" stroke-width="2" stroke="#000000" style="stroke-width: 2px;"/><g transform="translate(248,103) rotate(-45)"><ellipse cx="0" cy="0" rx="10" ry="5" fill="#ffffff" stroke="#000000" stroke-width="1"/></g><text x="270" y="128" stroke="#000000" style="font: 15px Arial; text-anchor: middle;">Z</text><rect x="258" y="25" width="22" height="22" fill="#ffffff" stroke-width="2" stroke="#000000" style="stroke-width: 2px;"/><g transform="translate(270,37) rotate(45)"><ellipse cx="0" cy="0" rx="10" ry="5" fill="#0000ff" stroke="#000000" stroke-width="1"/></g><rect x="258" y="47" width="22" height="22" fill="#ffffff" stroke-width="2" stroke="#000000" style="stroke-width: 2px;"/><g transform="translate(270,59) rotate(45)"><ellipse cx="0" cy="0" rx="10" ry="5" fill="#ffffff" stroke="#000000" stroke-width="1"/></g><rect x="258" y="69" width="22" height="22" fill="#ffffff" stroke-width="2" stroke="#000000" style="stroke-width: 2px;"/><g transform="translate(270,81) rotate(45)"><ellipse cx="0" cy="0" rx="10" ry="5" fill="#00ffff" stroke="#000000" stroke-width="1"/></g><rect x="258" y="91" width="22" height="22" fill="#ffffff" stroke-width="2" stroke="#000000" style="stroke-width: 2px;"/><g transform="translate(270,103) rotate(45)"><ellipse cx="0" cy="0" rx="10" ry="5" fill="#ffffff" stroke="#000000" stroke-width="1"/></g><text x="292" y="128" stroke="#000000" style="font: 15px Arial; text-anchor: middle;">S</text><rect x="280" y="25" width="22" height="22" fill="#ffffff" stroke-width="2" stroke="#000000" style="stroke-width: 2px;"/><g transform="translate(292,37) rotate(-45)"><ellipse cx="0" cy="0" rx="10" ry="5" fill="#0000ff" stroke="#000000" stroke-width="1"/></g><rect x="280" y="47" width="22" height="22" fill="#ffffff" stroke-width="2" stroke="#000000" style="stroke-width: 2px;"/><g transform="translate(292,59) rotate(-45)"><ellipse cx="0" cy="0" rx="10" ry="5" fill="#ffffff" stroke="#000000" stroke-width="1"/></g><rect x="280" y="69" width="22" height="22" fill="#ffffff" stroke-width="2" stroke="#000000" style="stroke-width: 2px;"/><g transform="translate(292,81) rotate(-45)"><ellipse cx="0" cy="0" rx="10" ry="5" fill="#ffffff" stroke="#000000" stroke-width="1"/></g><rect x="280" y="91" width="22" height="22" fill="#ffffff" stroke-width="2" stroke="#000000" style="stroke-width: 2px;"/><g transform="translate(292,103) rotate(-45)"><ellipse cx="0" cy="0" rx="10" ry="5" fill="#0000ff" stroke="#000000" stroke-width="1"/></g><text x="314" y="128" stroke="#000000" style="font: 15px Arial; text-anchor: middle;">Z</text><rect x="302" y="25" width="22" height="22" fill="#ffffff" stroke-width="2" stroke="#000000" style="stroke-width: 2px;"/><g transform="translate(314,37) rotate(45)"><ellipse cx="0" cy="0" rx="10" ry="5" fill="#0000ff" stroke="#000000" stroke-width="1"/></g><rect x="302" y="47" width="22" height="22" fill="#ffffff" stroke-width="2" stroke="#000000" style="stroke-width: 2px;"/><g transform="translate(314,59) rotate(45)"><ellipse cx="0" cy="0" rx="10" ry="5" fill="#0000ff" stroke="#000000" stroke-width="1"/></g><rect x="302" y="69" width="22" height="22" fill="#ffffff" stroke-width="2" stroke="#000000" style="stroke-width: 2px;"/><g transform="translate(314,81) rotate(45)"><ellipse cx="0" cy="0" rx="10" ry="5" fill="#ffffff" stroke="#000000" stroke-width="1"/></g><rect x="302" y="91" width="22" height="22" fill="#ffffff" stroke-width="2" stroke="#000000" style="stroke-width: 2px;"/><g transform="translate(314,103) rotate(45)"><ellipse cx="0" cy="0" rx="10" ry="5" fill="#0000ff" stroke="#000000" stroke-width="1"/></g><text x="336" y="128" stroke="#000000" style="font: 15px Arial; text-anchor: middle;">S</text><rect x="324" y="25" width="22" height="22" fill="#ffffff" stroke-width="2" stroke="#000000" style="stroke-width: 2px;"/><g transform="translate(336,37) rotate(-45)"><ellipse cx="0" cy="0" rx="10" ry="5" fill="#0000ff" stroke="#000000" stroke-width="1"/></g><rect x="324" y="47" width="22" height="22" fill="#ffffff" stroke-width="2" stroke="#000000" style="stroke-width: 2px;"/><g transform="translate(336,59) rotate(-45)"><ellipse cx="0" cy="0" rx="10" ry="5" fill="#0000ff" stroke="#000000" stroke-width="1"/></g><rect x="324" y="69" width="22" height="22" fill="#ffffff" stroke-width="2" stroke="#000000" style="stroke-width: 2px;"/><g transform="translate(336,81) rotate(-45)"><ellipse cx="0" cy="0" rx="10" ry="5" fill="#0000ff" stroke="#000000" stroke-width="1"/></g><rect x="324" y="91" width="22" height="22" fill="#ffffff" stroke-width="2" stroke="#000000" style="stroke-width: 2px;"/><g transform="translate(336,103) rotate(-45)"><ellipse cx="0" cy="0" rx="10" ry="5" fill="#0000ff" stroke="#000000" stroke-width="1"/></g><text x="358" y="128" stroke="#000000" style="font: 15px Arial; text-anchor: middle;">Z</text><rect x="346" y="25" width="22" height="22" fill="#ffffff" stroke-width="2" stroke="#000000" style="stroke-width: 2px;"/><g transform="translate(358,37) rotate(45)"><ellipse cx="0" cy="0" rx="10" ry="5" fill="#ffffff" stroke="#000000" stroke-width="1"/></g><rect x="346" y="47" width="22" height="22" fill="#ffffff" stroke-width="2" stroke="#000000" style="stroke-width: 2px;"/><g transform="translate(358,59) rotate(45)"><ellipse cx="0" cy="0" rx="10" ry="5" fill="#ffffff" stroke="#000000" stroke-width="1"/></g><rect x="346" y="69" width="22" height="22" fill="#ffffff" stroke-width="2" stroke="#000000" style="stroke-width: 2px;"/><g transform="translate(358,81) rotate(45)"><ellipse cx="0" cy="0" rx="10" ry="5" fill="#ffffff" stroke="#000000" stroke-width="1"/></g><rect x="346" y="91" width="22" height="22" fill="#ffffff" stroke-width="2" stroke="#000000" style="stroke-width: 2px;"/><g transform="translate(358,103) rotate(45)"><ellipse cx="0" cy="0" rx="10" ry="5" fill="#ffffff" stroke="#000000" stroke-width="1"/></g><text x="380" y="128" stroke="#000000" style="font: 15px Arial; text-anchor: middle;">S</text><rect x="368" y="25" width="22" height="22" fill="#ffffff" stroke-width="2" stroke="#000000" style="stroke-width: 2px;"/><g transform="translate(380,37) rotate(-45)"><ellipse cx="0" cy="0" rx="10" ry="5" fill="#0000ff" stroke="#000000" stroke-width="1"/></g><rect x="368" y="47" width="22" height="22" fill="#ffffff" stroke-width="2" stroke="#000000" style="stroke-width: 2px;"/><g transform="translate(380,59) rotate(-45)"><ellipse cx="0" cy="0" rx="10" ry="5" fill="#0000ff" stroke="#000000" stroke-width="1"/></g><rect x="368" y="69" width="22" height="22" fill="#ffffff" stroke-width="2" stroke="#000000" style="stroke-width: 2px;"/><g transform="translate(380,81) rotate(-45)"><ellipse cx="0" cy="0" rx="10" ry="5" fill="#0000ff" stroke="#000000" stroke-width="1"/></g><rect x="368" y="91" width="22" height="22" fill="#ffffff" stroke-width="2" stroke="#000000" style="stroke-width: 2px;"/><g transform="translate(380,103) rotate(-45)"><ellipse cx="0" cy="0" rx="10" ry="5" fill="#0000ff" stroke="#000000" stroke-width="1"/></g><text x="402" y="128" stroke="#000000" style="font: 15px Arial; text-anchor: middle;">Z</text><rect x="390" y="25" width="22" height="22" fill="#ffffff" stroke-width="2" stroke="#000000" style="stroke-width: 2px;"/><g transform="translate(402,37) rotate(45)"><ellipse cx="0" cy="0" rx="10" ry="5" fill="#0000ff" stroke="#000000" stroke-width="1"/></g><rect x="390" y="47" width="22" height="22" fill="#ffffff" stroke-width="2" stroke="#000000" style="stroke-width: 2px;"/><g transform="translate(402,59) rotate(45)"><ellipse cx="0" cy="0" rx="10" ry="5" fill="#0000ff" stroke="#000000" stroke-width="1"/></g><rect x="390" y="69" width="22" height="22" fill="#ffffff" stroke-width="2" stroke="#000000" style="stroke-width: 2px;"/><g transform="translate(402,81) rotate(45)"><ellipse cx="0" cy="0" rx="10" ry="5" fill="#0000ff" stroke="#000000" stroke-width="1"/></g><rect x="390" y="91" width="22" height="22" fill="#ffffff" stroke-width="2" stroke="#000000" style="stroke-width: 2px;"/><g transform="translate(402,103) rotate(45)"><ellipse cx="0" cy="0" rx="10" ry="5" fill="#0000ff" stroke="#000000" stroke-width="1"/></g></g></g><g><line x1="16" y1="0" x2="16" y2="0" stroke="#000000" stroke-width="8" visibility="hidden"/></g><g><line x1="16" y1="25" x2="16" y2="25" stroke="#000000" stroke-width="8" visibility="hidden"/><line x1="14" y1="25" x2="414" y2="25" stroke="#000000" stroke-width="8" visibility="hidden"/></g></svg>